<?xml version="1.0" encoding="UTF-8"?><svg id="uuid-7d42ca3b-1c35-4828-af7b-4b6e688b70f3" xmlns="http://www.w3.org/2000/svg" viewBox="0 0 122 122"><rect y="26" width="2" height="2"/><rect y="42" width="2" height="2"/><polygon points="0 58 0 60 2 60 4 60 4 58 2 58 0 58"/><rect y="78" width="2" height="4"/><rect y="94" width="2" height="4"/><path d="m4,14h10V0H0v14h4ZM2,2h10v10H2V2Z"/><polygon points="2 36 2 34 0 34 0 38 2 38 4 38 4 36 2 36"/><polygon points="2 54 2 52 4 52 6 52 6 54 8 54 8 52 10 52 10 54 12 54 14 54 14 52 12 52 12 50 14 50 14 52 16 52 16 50 18 50 20 50 20 48 22 48 22 50 24 50 24 46 22 46 22 44 24 44 24 42 22 42 20 42 18 42 18 44 20 44 20 46 18 46 18 48 16 48 14 48 12 48 12 46 10 46 10 48 8 48 8 50 6 50 6 48 4 48 4 46 6 46 8 46 8 44 10 44 12 44 12 42 14 42 16 42 18 42 18 40 20 40 22 40 22 38 20 38 20 36 18 36 18 38 16 38 14 38 14 40 12 40 10 40 10 42 8 42 6 42 6 40 8 40 10 40 10 32 12 32 12 30 14 30 14 32 12 32 12 34 14 34 16 34 18 34 18 32 20 32 20 30 18 30 16 30 16 26 14 26 14 28 12 28 10 28 8 28 6 28 6 30 4 30 2 30 0 30 0 32 2 32 2 34 4 34 6 34 6 32 8 32 8 36 6 36 6 38 4 38 4 40 2 40 2 42 4 42 4 44 2 44 2 46 0 46 0 48 2 48 2 50 0 50 0 56 2 56 4 56 4 54 2 54"/><rect x="2" y="64" width="2" height="2"/><polygon points="2 70 2 68 0 68 0 72 2 72 2 74 4 74 4 70 2 70"/><polygon points="4 90 2 90 2 88 0 88 0 92 2 92 2 94 4 94 4 90"/><rect x="4" y="56" width="2" height="2"/><rect x="4" y="62" width="2" height="2"/><rect x="4" y="94" width="2" height="2"/><polygon points="8 10 10 10 10 4 8 4 6 4 4 4 4 10 6 10 8 10"/><rect x="6" y="16" width="2" height="2"/><polygon points="8 26 8 24 10 24 10 26 12 26 14 26 14 24 12 24 12 22 14 22 14 24 16 24 16 26 18 26 18 22 20 22 20 26 18 26 18 28 20 28 20 30 22 30 22 22 24 22 24 20 22 20 20 20 18 20 16 20 14 20 12 20 12 18 14 18 14 16 12 16 10 16 10 22 8 22 8 20 6 20 6 22 4 22 4 18 2 18 2 16 0 16 0 20 2 20 2 26 4 26 4 28 6 28 6 26 8 26"/><polygon points="6 78 6 84 4 84 4 82 2 82 2 86 4 86 6 86 6 90 8 90 10 90 10 88 8 88 8 82 10 82 10 78 8 78 6 78"/><polygon points="6 112 4 112 4 118 6 118 8 118 10 118 10 112 8 112 6 112"/><polygon points="8 96 10 96 10 92 8 92 6 92 6 94 8 94 8 96"/><polygon points="10 70 8 70 8 68 6 68 6 74 4 74 4 76 6 76 8 76 10 76 10 72 12 72 12 70 10 70"/><polygon points="12 78 14 78 14 76 12 76 10 76 10 78 12 78"/><path d="m10,108H0v14h14v-14h-4Zm2,12H2v-10h10v10Z"/><rect x="12" y="36" width="2" height="2"/><rect x="12" y="60" width="2" height="2"/><rect x="12" y="68" width="2" height="2"/><rect x="12" y="72" width="2" height="2"/><rect x="12" y="80" width="2" height="2"/><rect x="12" y="84" width="2" height="2"/><rect x="12" y="88" width="2" height="2"/><rect x="12" y="92" width="2" height="2"/><rect x="12" y="96" width="2" height="2"/><rect x="12" y="104" width="2" height="2"/><polygon points="14 44 12 44 12 46 14 46 16 46 18 46 18 44 16 44 14 44"/><rect x="14" y="78" width="2" height="2"/><rect x="14" y="82" width="2" height="2"/><rect x="14" y="90" width="2" height="2"/><polygon points="14 100 12 100 10 100 10 98 8 98 6 98 6 100 4 100 4 102 2 102 0 102 0 106 2 106 4 106 6 106 8 106 8 104 6 104 6 102 8 102 8 104 10 104 10 102 12 102 14 102 16 102 18 102 18 100 16 100 16 98 14 98 14 100"/><rect x="16" y="16" width="2" height="2"/><rect x="16" y="110" width="2" height="2"/><rect x="16" y="114" width="2" height="2"/><rect x="16" y="120" width="2" height="2"/><path d="m20,60h2v-2h-4v-2h4v-2h-8v2h-6v2h-2v2h2v6h8v4h-2v2h4v-12h2Zm-4,4h-6v-6h6v6Z"/><polygon points="18 96 18 92 16 92 16 98 18 98 20 98 20 96 18 96"/><polygon points="20 0 20 4 18 4 18 10 16 10 16 14 18 14 18 12 20 12 20 6 22 6 22 0 20 0"/><rect x="20" y="12" width="2" height="4"/><polygon points="22 34 24 34 24 36 26 36 26 38 28 38 28 34 30 34 30 32 28 32 26 32 26 30 24 30 22 30 22 32 20 32 20 36 22 36 22 34"/><rect x="20" y="50" width="2" height="2"/><rect x="20" y="62" width="2" height="2"/><rect x="20" y="98" width="2" height="4"/><polygon points="20 110 20 112 18 112 18 114 20 114 22 114 22 110 20 110"/><rect x="22" y="36" width="2" height="2"/><rect x="22" y="60" width="2" height="2"/><rect x="22" y="108" width="2" height="2"/><rect x="24" width="2" height="2"/><polygon points="26 28 26 30 28 30 28 28 30 28 32 28 32 26 34 26 36 26 36 24 34 24 32 24 32 22 30 22 30 20 28 20 28 14 26 14 26 22 28 22 28 24 30 24 30 26 28 26 28 24 26 24 26 22 24 22 24 28 26 28"/><rect x="24" y="38" width="2" height="2"/><rect x="24" y="50" width="2" height="4"/><polygon points="26 58 26 56 24 56 22 56 22 58 24 58 26 58"/><polygon points="26 66 26 64 24 64 22 64 22 66 20 66 20 70 22 70 22 68 24 68 24 66 26 66"/><rect x="24" y="68" width="2" height="2"/><polygon points="26 94 28 94 28 92 30 92 30 94 32 94 32 92 34 92 34 88 36 88 36 86 38 86 38 84 36 84 34 84 34 86 32 86 32 90 30 90 30 88 28 88 28 90 26 90 26 88 28 88 28 86 30 86 32 86 32 84 34 84 34 82 32 82 32 78 30 78 30 76 28 76 28 78 26 78 26 84 24 84 24 80 22 80 22 78 20 78 20 76 22 76 24 76 24 74 22 74 22 72 20 72 18 72 18 80 20 80 20 86 22 86 22 88 24 88 24 90 22 90 20 90 20 88 18 88 18 92 20 92 20 96 22 96 22 94 24 94 24 96 22 96 22 98 24 98 24 100 26 100 28 100 28 98 26 98 26 94"/><rect x="24" y="120" width="2" height="2"/><polygon points="28 6 28 8 30 8 30 6 32 6 32 4 30 4 28 4 28 2 26 2 26 4 24 4 24 6 22 6 22 8 24 8 24 14 26 14 26 6 28 6"/><polygon points="26 40 26 42 28 42 28 46 30 46 30 38 28 38 28 40 26 40"/><rect x="26" y="46" width="2" height="2"/><polygon points="28 60 28 64 30 64 30 66 32 66 34 66 34 64 32 64 32 60 30 60 30 58 32 58 32 56 30 56 30 54 32 54 32 52 30 52 30 50 28 50 28 58 26 58 26 60 28 60"/><rect x="26" y="66" width="2" height="2"/><polygon points="28 74 30 74 30 72 28 72 28 70 26 70 26 72 24 72 24 74 26 74 28 74"/><rect x="28" y="12" width="2" height="2"/><rect x="28" y="118" width="2" height="2"/><polygon points="32 2 32 0 30 0 28 0 28 2 30 2 32 2"/><polygon points="32 10 32 14 30 14 30 16 32 16 34 16 34 18 36 18 36 20 34 20 32 20 32 22 34 22 36 22 36 24 38 24 40 24 40 22 38 22 38 16 40 16 42 16 42 12 40 12 40 14 38 14 38 12 40 12 40 10 38 10 36 10 36 14 34 14 34 10 36 10 36 8 34 8 32 8 30 8 30 10 32 10"/><rect x="30" y="18" width="2" height="2"/><rect x="30" y="34" width="2" height="2"/><rect x="30" y="46" width="2" height="2"/><polygon points="32 96 30 96 30 94 28 94 28 98 30 98 30 102 32 102 32 96"/><polygon points="30 110 30 106 32 106 32 104 30 104 30 102 28 102 26 102 24 102 24 104 22 104 20 104 18 104 18 106 16 106 16 108 18 108 20 108 22 108 22 106 24 106 26 106 26 110 24 110 24 114 22 114 22 116 20 116 20 120 22 120 22 118 24 118 26 118 28 118 28 116 26 116 26 112 28 112 28 114 30 114 30 112 32 112 32 110 30 110"/><rect x="32" y="36" width="2" height="2"/><rect x="32" y="58" width="2" height="2"/><polygon points="34 70 34 68 32 68 30 68 28 68 28 70 30 70 30 72 32 72 32 70 34 70"/><rect x="32" y="108" width="2" height="2"/><rect x="34" y="2" width="2" height="2"/><rect x="34" y="40" width="2" height="2"/><polygon points="34 54 32 54 32 56 34 56 36 56 36 48 34 48 34 50 32 50 32 52 34 52 34 54"/><rect x="34" y="62" width="2" height="2"/><rect x="34" y="66" width="2" height="2"/><rect x="34" y="70" width="2" height="2"/><polygon points="34 96 34 98 36 98 36 100 38 100 38 96 36 96 34 96"/><polygon points="36 102 34 102 34 106 36 106 38 106 38 104 36 104 36 102"/><rect x="36" y="4" width="2" height="2"/><polygon points="38 30 38 28 36 28 34 28 34 30 32 30 32 32 34 32 36 32 36 30 38 30"/><rect x="36" y="58" width="2" height="2"/><rect x="36" y="64" width="2" height="2"/><rect x="36" y="68" width="2" height="2"/><rect x="36" y="120" width="2" height="2"/><rect x="38" y="26" width="2" height="2"/><polygon points="38 30 38 32 36 32 36 36 38 36 38 38 36 38 36 40 38 40 38 44 40 44 40 40 42 40 42 36 40 36 40 32 42 32 42 30 40 30 38 30"/><polygon points="40 68 40 70 42 70 42 72 44 72 44 74 46 74 46 70 48 70 48 68 46 68 44 68 42 68 42 66 40 66 38 66 38 68 40 68"/><polygon points="42 46 40 46 38 46 38 48 40 48 40 50 42 50 42 46"/><polygon points="42 76 42 72 40 72 40 74 38 74 38 72 36 72 36 74 34 74 34 72 32 72 32 74 30 74 30 76 32 76 34 76 36 76 38 76 38 78 40 78 40 76 42 76"/><polygon points="42 88 42 86 40 86 38 86 38 90 40 90 40 88 42 88"/><rect x="40" y="90" width="2" height="2"/><polygon points="42 18 42 20 44 20 46 20 46 18 44 18 42 18"/><polygon points="42 28 44 28 44 34 46 34 46 26 44 26 44 24 46 24 46 26 48 26 48 24 50 24 50 20 48 20 48 22 46 22 44 22 42 22 42 28"/><rect x="42" y="44" width="2" height="2"/><polygon points="44 52 42 52 40 52 40 50 38 50 38 58 40 58 40 54 42 54 42 56 44 56 46 56 46 54 44 54 44 52"/><rect x="42" y="84" width="2" height="2"/><polygon points="44 16 46 16 46 12 48 12 48 10 46 10 46 4 44 4 44 6 42 6 42 2 40 2 40 0 38 0 36 0 36 2 38 2 38 4 40 4 40 6 38 6 38 8 40 8 42 8 44 8 44 10 42 10 42 12 44 12 44 16"/><rect x="44" y="36" width="2" height="2"/><rect x="44" y="40" width="2" height="2"/><rect x="44" y="48" width="2" height="2"/><rect x="44" y="82" width="2" height="2"/><rect x="44" y="90" width="2" height="2"/><polygon points="46 16 46 18 48 18 50 18 52 18 54 18 54 12 52 12 52 16 50 16 50 12 48 12 48 16 46 16"/><rect x="46" y="38" width="2" height="2"/><rect x="46" y="52" width="2" height="2"/><polygon points="46 74 46 76 48 76 50 76 52 76 52 74 50 74 50 70 48 70 48 74 46 74"/><rect x="48" y="4" width="2" height="4"/><rect x="48" y="28" width="2" height="2"/><rect x="48" y="32" width="2" height="2"/><polygon points="50 42 50 44 52 44 52 42 54 42 54 40 56 40 56 38 54 38 52 38 52 40 50 40 48 40 48 42 50 42"/><polygon points="48 44 48 42 46 42 46 46 48 46 50 46 50 44 48 44"/><polygon points="50 56 52 56 52 54 50 54 48 54 48 58 50 58 50 56"/><polygon points="50 122 52 122 52 118 50 118 50 120 48 120 48 122 50 122"/><polygon points="52 2 54 2 54 0 52 0 50 0 50 4 52 4 52 2"/><rect x="50" y="36" width="2" height="2"/><rect x="50" y="46" width="2" height="2"/><polygon points="52 52 52 50 50 50 50 48 48 48 48 52 50 52 52 52"/><polygon points="50 60 50 62 48 62 48 58 46 58 46 62 44 62 44 58 42 58 42 64 44 64 46 64 48 64 48 66 50 66 50 64 52 64 52 60 50 60"/><rect x="50" y="68" width="2" height="2"/><rect x="52" y="4" width="2" height="2"/><polygon points="54 28 52 28 52 30 50 30 50 32 52 32 52 36 54 36 54 28"/><rect x="52" y="44" width="2" height="2"/><rect x="52" y="58" width="2" height="2"/><rect x="52" y="64" width="2" height="2"/><rect x="54" y="98" width="2" height="2"/><rect x="54" y="118" width="2" height="2"/><path d="m56,18h-2v2h4v-2h8V4h2v2h2v-2h2v2h2v-2h2v-2h-4V0h-8v2h-2v2h2v4h-4v-2h-2v2h-6v2h2v2h2v6Zm2-8h6v6h-6v-6Z"/><rect x="56" y="40" width="2" height="2"/><rect x="56" y="46" width="2" height="2"/><polygon points="58 76 56 76 56 74 58 74 58 76 60 76 60 72 58 72 56 72 54 72 54 78 56 78 56 80 58 80 58 76"/><rect x="56" y="84" width="2" height="4"/><polygon points="60 2 62 2 62 0 60 0 58 0 56 0 56 6 58 6 58 2 60 2"/><polygon points="60 38 60 36 58 36 58 34 60 34 60 36 62 36 62 34 64 34 64 32 62 32 62 30 60 30 58 30 58 28 56 28 56 38 58 38 60 38"/><polygon points="60 50 62 50 62 48 60 48 58 48 58 50 60 50"/><polygon points="58 52 56 52 54 52 54 56 56 56 56 54 58 54 60 54 60 52 58 52"/><rect x="58" y="82" width="2" height="2"/><polygon points="60 94 60 90 58 90 58 92 56 92 56 94 58 94 60 94"/><rect x="58" y="96" width="2" height="4"/><rect x="60" y="4" width="2" height="2"/><rect x="60" y="12" width="2" height="2"/><polygon points="62 28 62 26 64 26 64 24 62 24 62 22 64 22 64 24 66 24 66 34 68 34 68 32 70 32 70 34 72 34 72 30 70 30 70 28 72 28 72 30 74 30 76 30 76 28 74 28 74 26 72 26 72 24 74 24 76 24 76 20 74 20 72 20 72 22 70 22 70 24 68 24 68 20 66 20 64 20 62 20 60 20 60 24 58 24 58 22 56 22 54 22 52 22 52 24 54 24 54 26 56 26 58 26 58 28 60 28 62 28"/><rect x="60" y="60" width="2" height="2"/><path d="m62,68h2v-2h2v-6h4v-2h-4v-2h-4v-2h-2v2h-4v10h-2v2h2v2h2v-4h2v6h2v-4Zm-4-4v-6h6v6h-6Z"/><rect x="60" y="94" width="2" height="2"/><rect x="60" y="108" width="2" height="2"/><rect x="62" y="28" width="2" height="2"/><rect x="62" y="50" width="2" height="2"/><rect x="62" y="72" width="2" height="2"/><polygon points="64 90 64 88 66 88 66 94 68 94 68 90 70 90 72 90 74 90 74 92 76 92 76 88 74 88 72 88 72 86 70 86 70 84 68 84 66 84 64 84 62 84 62 86 60 86 60 90 62 90 64 90"/><rect x="62" y="92" width="2" height="2"/><rect x="62" y="98" width="2" height="2"/><rect x="64" y="34" width="2" height="2"/><polygon points="64 42 62 42 62 44 60 44 60 42 58 42 58 46 60 46 62 46 64 46 64 44 66 44 66 42 64 42"/><rect x="64" y="48" width="2" height="2"/><rect x="64" y="68" width="2" height="2"/><rect x="64" y="74" width="2" height="2"/><rect x="64" y="96" width="2" height="2"/><rect x="66" y="44" width="2" height="2"/><rect x="66" y="54" width="2" height="2"/><polygon points="68 68 70 68 70 64 72 64 72 62 70 62 68 62 68 66 66 66 66 68 68 68"/><rect x="68" y="12" width="2" height="4"/><polygon points="68 36 66 36 66 38 64 38 64 36 62 36 62 38 60 38 60 42 62 42 62 40 64 40 66 40 66 42 68 42 68 38 70 38 72 38 72 36 70 36 68 36"/><rect x="68" y="42" width="2" height="2"/><polygon points="70 48 72 48 72 46 70 46 68 46 68 48 70 48"/><rect x="68" y="52" width="2" height="2"/><rect x="70" y="6" width="2" height="2"/><polygon points="72 20 72 18 70 18 68 18 68 20 70 20 72 20"/><polygon points="70 92 70 94 72 94 74 94 74 92 72 92 70 92"/><rect x="70" y="110" width="2" height="2"/><rect x="72" y="10" width="2" height="4"/><rect x="72" y="16" width="2" height="2"/><rect x="72" y="42" width="2" height="2"/><polygon points="74 60 76 60 76 58 74 58 72 58 72 62 74 62 74 60"/><rect x="74" y="14" width="2" height="2"/><rect x="74" y="82" width="2" height="2"/><rect x="74" y="112" width="2" height="2"/><rect x="74" y="118" width="2" height="4"/><polygon points="76 14 78 14 78 12 80 12 80 8 78 8 76 8 74 8 74 10 76 10 76 14"/><rect x="76" y="16" width="2" height="4"/><rect x="76" y="44" width="2" height="2"/><polygon points="76 50 74 50 72 50 70 50 70 52 72 52 74 52 76 52 78 52 78 50 76 50"/><rect x="76" y="74" width="2" height="2"/><polygon points="76 78 76 76 74 76 72 76 70 76 70 74 68 74 68 76 66 76 66 78 64 78 64 76 62 76 62 80 60 80 60 82 62 82 64 82 64 80 66 80 68 80 68 82 70 82 72 82 72 80 70 80 70 78 72 78 74 78 74 80 76 80 78 80 78 78 76 78"/><rect x="76" y="84" width="2" height="2"/><polygon points="78 96 80 96 80 94 78 94 78 92 76 92 76 96 78 96"/><path d="m78,6h8v2h-2v2h4v4h2v-2h2v8h-4v6h-4v-2h-2v4h-2v-2h-2v-2h-2v4h2v4h-4v2h-2v2h2v2h2v4h6v-2h4v-2h2v-4h-6v-2h-2v-2h2v2h2v-4h6v-6h4v2h2v-2h2v2h2v-4h4v4h-2v2h-2v2h2v2h-2v-2h-4v2h2v4h4v2h2v-2h2v-2h2v-2h-4v-4h2v-2h4v-2h-4v-2h4v-2h-2v-2h-4v-2h-2v4h-4v2h-2v-2h-2V6h-2v-2h2v-2h-6v2h2v2h-2v-2h-8v-2h2V0h-6v2h2v4Zm-2,30v-2h2v2h-2Zm6,0h2v2h-4v2h-2v-2h2v-2h2Z"/><rect x="78" y="14" width="2" height="2"/><polygon points="80 56 78 56 78 62 80 62 80 64 78 64 78 68 76 68 76 62 74 62 74 64 72 64 72 66 74 66 74 68 72 68 70 68 70 70 68 70 66 70 66 72 68 72 70 72 72 72 72 70 74 70 74 72 72 72 72 74 74 74 76 74 76 72 78 72 78 70 80 70 80 68 82 68 84 68 84 66 82 66 82 64 84 64 84 62 82 62 82 60 80 60 80 56"/><rect x="78" y="102" width="2" height="2"/><rect x="80" y="12" width="2" height="2"/><polygon points="80 44 80 46 82 46 82 48 84 48 86 48 86 44 84 44 84 42 82 42 82 44 80 44"/><rect x="80" y="72" width="2" height="6"/><polygon points="80 90 80 92 82 92 82 94 84 94 86 94 86 92 84 92 84 90 82 90 80 90"/><rect x="80" y="104" width="2" height="2"/><rect x="82" y="10" width="2" height="2"/><polygon points="84 96 82 96 80 96 80 102 82 102 82 104 84 104 84 100 86 100 86 98 84 98 84 96"/><rect x="82" y="120" width="2" height="2"/><rect x="84" y="12" width="2" height="2"/><polygon points="84 74 84 78 82 78 82 80 84 80 86 80 86 76 88 76 88 74 86 74 84 74"/><polygon points="84 104 84 108 86 108 86 106 88 106 90 106 90 102 88 102 88 100 86 100 86 104 84 104"/><path d="m84,116h-2v-2h-2v-2h2v2h2v-4h-2v-2h-2v-2h-2v-2h-2v-6h-2v2h-2v-2h-2v-2h-2v4h2v2h2v2h2v2h-4v-4h-2v6h-2v-6h-2v2h-2v-4h-2v2h-2v2h-6v-2h-2v-2h2v-2h2v-2h2v-2h-4v-2h4v-2h-2v-6h2v-4h-6v-2h-10v2h-2v-2h-4v2h2v2h2v2h2v-2h2v-2h4v2h6v2h-6v6h4v2h-4v2h2v2h-2v2h2v4h-2v-4h-2v2h-2v-4h4v-2h-2v-2h-2v2h-4v2h2v6h-2v2h4v-2h2v2h-2v2h2v2h-2v-2h-2v2h-2v2h4v2h-6v-2h-2v2h-2v8h4v-2h-2v-4h2v2h8v-2h2v4h-2v2h4v-4h2v-2h-2v-2h2v-2h2v-2h-4v-2h4v2h2v-2h2v6h-2v-2h-2v4h4v4h2v2h8v2h2v-2h4v-4h2v-2h-6v-4h2v-2h2v2h2v-2h4v8h-2v2h8v2h2v-4h-2Zm-36-28v-2h4v2h-4Zm-2,24h-2v-2h2v2Zm14,4h-2v-2h2v2Zm0-4h-2v-6h6v6h-4Zm6,6h-4v-2h4v2Zm4-2v2h-2v-2h2Z"/><rect x="86" width="2" height="2"/><rect x="86" y="30" width="2" height="2"/><rect x="86" y="54" width="2" height="2"/><polygon points="88 84 86 84 84 84 84 82 82 82 82 80 80 80 78 80 78 84 80 84 82 84 82 86 80 86 80 88 82 88 84 88 84 86 86 86 86 88 84 88 84 90 86 90 88 90 90 90 90 88 88 88 88 84"/><rect x="86" y="120" width="2" height="2"/><polygon points="90 18 90 16 88 16 86 16 84 16 84 14 82 14 82 20 84 20 86 20 88 20 88 18 90 18"/><rect x="88" y="82" width="2" height="2"/><polygon points="88 96 86 96 86 98 88 98 90 98 90 100 92 100 92 94 90 94 90 92 88 92 88 96"/><polygon points="88 108 88 110 90 110 92 110 92 106 90 106 90 108 88 108"/><polygon points="90 116 90 112 88 112 86 112 86 116 88 116 90 116"/><rect x="88" y="118" width="2" height="2"/><rect x="90" y="30" width="2" height="2"/><rect x="90" y="90" width="2" height="2"/><rect x="90" y="116" width="2" height="2"/><rect x="92" y="24" width="2" height="2"/><rect x="92" y="28" width="2" height="2"/><polygon points="94 44 94 46 92 46 90 46 88 46 88 48 90 48 90 50 88 50 88 48 86 48 86 50 84 50 84 52 82 52 82 48 80 48 80 52 78 52 78 54 80 54 82 54 84 54 86 54 86 52 88 52 90 52 92 52 92 50 94 50 96 50 96 52 94 52 94 58 92 58 92 60 94 60 94 62 96 62 96 64 94 64 94 66 96 66 98 66 98 64 100 64 100 62 98 62 98 60 96 60 96 58 98 58 98 56 96 56 96 54 98 54 98 48 96 48 96 42 94 42 92 42 92 44 94 44"/><rect x="94" y="26" width="2" height="2"/><polygon points="94 112 96 112 98 112 98 108 96 108 96 106 94 106 94 112"/><rect x="96" y="2" width="2" height="4"/><rect x="96" y="12" width="2" height="2"/><rect x="96" y="16" width="2" height="2"/><polygon points="96 34 96 30 94 30 94 32 92 32 92 34 94 34 94 36 92 36 90 36 90 40 88 40 86 40 86 42 88 42 90 42 92 42 92 38 94 38 94 40 96 40 96 36 98 36 98 34 96 34"/><rect x="96" y="80" width="2" height="2"/><rect x="96" y="88" width="2" height="2"/><rect x="96" y="92" width="2" height="4"/><polygon points="98 118 98 116 96 116 96 114 94 114 92 114 92 116 94 116 94 118 92 118 92 120 90 120 90 122 92 122 94 122 94 120 96 120 96 118 98 118"/><rect x="98" y="42" width="2" height="2"/><polygon points="100 70 98 70 98 72 96 72 96 70 98 70 98 68 96 68 94 68 94 66 92 66 92 64 94 64 94 62 92 62 90 62 90 58 88 58 86 58 86 56 84 56 84 58 82 58 82 60 84 60 86 60 86 62 88 62 88 64 86 64 84 64 84 66 86 66 86 68 84 68 84 70 82 70 82 72 84 72 86 72 86 70 88 70 88 74 90 74 90 76 92 76 92 78 90 78 90 82 92 82 92 84 90 84 90 88 92 88 92 90 94 90 94 86 96 86 96 84 94 84 94 78 96 78 96 76 94 76 94 74 92 74 92 70 94 70 94 74 96 74 96 76 98 76 100 76 100 74 102 74 102 72 100 72 100 70"/><polygon points="98 100 96 100 96 98 94 98 94 104 96 104 96 106 98 106 100 106 100 104 98 104 98 102 100 102 100 98 98 98 98 100"/><rect x="100" y="68" width="2" height="2"/><polygon points="100 82 98 82 98 86 100 86 100 88 102 88 104 88 104 90 106 90 106 92 108 92 108 88 106 88 106 86 108 86 110 86 110 84 108 84 108 82 110 82 112 82 112 88 114 88 114 86 116 86 116 92 118 92 118 88 120 88 120 84 118 84 116 84 114 84 114 78 116 78 118 78 118 76 120 76 120 78 122 78 122 72 120 72 120 74 118 74 118 72 116 72 116 74 114 74 112 74 112 72 110 72 108 72 108 74 110 74 110 76 112 76 112 78 110 78 110 80 108 80 106 80 106 82 104 82 104 86 102 86 102 78 100 78 100 82"/><polygon points="100 90 100 98 102 98 104 98 104 96 106 96 106 94 104 94 102 94 102 92 104 92 104 90 102 90 100 90"/><polygon points="100 118 102 118 102 112 100 112 100 114 98 114 98 116 100 116 100 118"/><polygon points="104 10 104 8 102 8 102 6 104 6 104 8 106 8 106 0 104 0 102 0 102 4 100 4 100 6 98 6 98 8 96 8 96 10 98 10 98 12 100 12 100 14 102 14 102 10 104 10"/><polygon points="102 40 102 36 100 36 98 36 98 38 100 38 100 42 102 42 104 42 104 40 102 40"/><rect x="102" y="54" width="2" height="2"/><path d="m102,58v-2h-2v4h4v2h-2v2h-2v2h6v2h-2v2h-2v2h2v2h-2v4h2v-2h2v-6h2v-4h8v4h2v-2h4v-2h-4v-2h-2v-4h2v-2h-4v-2h-10v2h-2Zm4,0h6v6h-6v-6Z"/><path d="m102,108h2v6h6v2h2v-2h2v4h4v-2h-2v-2h2v-2h2v2h2v-6h-2v-4h2v-2h-4v-2h-2v4h2v2h-2v2h2v2h-4v-4h2v-2h-2v-2h-2v2h-4v-2h-2v2h-2v-4h-2v8Zm4-2h6v6h-6v-6Z"/><polygon points="102 120 100 120 98 120 96 120 96 122 98 122 100 122 102 122 104 122 104 118 102 118 102 120"/><rect x="104" y="12" width="2" height="2"/><rect x="104" y="98" width="2" height="2"/><rect x="106" y="76" width="2" height="2"/><rect x="106" y="96" width="2" height="2"/><polygon points="106 116 104 116 104 118 106 118 108 118 108 116 106 116"/><rect x="108" y="60" width="2" height="2"/><rect x="108" y="100" width="2" height="2"/><rect x="108" y="108" width="2" height="2"/><rect x="110" y="16" width="2" height="2"/><rect x="110" y="88" width="2" height="2"/><rect x="110" y="94" width="2" height="2"/><polygon points="110 118 108 118 108 120 106 120 106 122 108 122 110 122 112 122 114 122 116 122 116 120 114 120 114 118 112 118 110 118"/><rect x="112" y="42" width="2" height="2"/><polygon points="114 68 112 68 110 68 110 70 112 70 112 72 114 72 114 68"/><rect x="112" y="90" width="2" height="2"/><rect x="112" y="96" width="2" height="2"/><polygon points="114 4 112 4 112 10 114 10 116 10 118 10 118 4 116 4 114 4"/><polygon points="114 28 114 24 112 24 110 24 110 26 112 26 112 28 110 28 110 26 108 26 108 30 110 30 110 34 108 34 108 36 106 36 104 36 104 38 106 38 108 38 108 44 106 44 106 42 104 42 104 44 102 44 100 44 100 54 102 54 102 52 104 52 104 50 102 50 102 48 104 48 104 46 106 46 106 48 104 48 104 50 106 50 108 50 108 46 110 46 110 48 112 48 112 50 114 50 116 50 118 50 120 50 120 48 118 48 118 46 116 46 114 46 112 46 112 44 110 44 110 42 112 42 112 40 110 40 110 38 112 38 112 36 114 36 114 34 112 34 112 30 114 30 114 32 116 32 118 32 118 28 116 28 114 28"/><rect x="114" y="40" width="2" height="2"/><polygon points="116 54 118 54 118 52 116 52 114 52 112 52 110 52 108 52 106 52 106 54 108 54 110 54 112 54 114 54 114 56 116 56 116 54"/><rect x="114" y="94" width="2" height="2"/><rect x="114" y="98" width="2" height="2"/><polygon points="118 26 118 28 120 28 120 24 118 24 116 24 116 26 118 26"/><polygon points="116 36 114 36 114 38 116 38 116 40 118 40 118 38 120 38 120 36 122 36 122 32 120 32 118 32 118 36 116 36"/><rect x="116" y="96" width="2" height="2"/><polygon points="120 18 118 18 116 18 114 18 112 18 112 20 110 20 110 22 112 22 114 22 114 24 116 24 116 22 118 22 120 22 122 22 122 20 120 20 120 18"/><rect x="118" y="42" width="2" height="2"/><polygon points="120 56 122 56 122 52 120 52 120 54 118 54 118 56 120 56"/><polygon points="120 64 122 64 122 62 120 62 120 60 118 60 118 64 120 64"/><polygon points="120 94 122 94 122 92 120 92 118 92 118 94 120 94"/><rect x="118" y="98" width="2" height="2"/><rect x="118" y="114" width="2" height="2"/><path d="m120,0h-12v14h14V0h-2Zm0,12h-10V2h10v10Z"/><rect x="120" y="28" width="2" height="2"/><rect x="120" y="38" width="2" height="4"/><rect x="120" y="80" width="2" height="2"/><rect x="120" y="116" width="2" height="6"/></svg>